<svg version="1.1" id="Layer_1" xmlns="http://www.w3.org/2000/svg" x="0" y="0" viewBox="0 0 210 49" xml:space="preserve"><style>.st0{fill:#1670a9}</style><path class="st0" d="M26.6 48.3c-.9-.3-1.8-.3-2.7-.4-10.1-1.6-18.4-10-19.7-20.1-1.4-11 5-21.4 15.5-25.2 2.7-1 5.5-1.5 8.3-1.4 12.5.2 22.2 9.3 23.5 21C52.9 34.4 44 46 31.8 47.9c-.9.1-1.9.1-2.8.4h-2.4zm1.2-45.2C16.1 3 6.1 12.3 6 24.5c-.1 12.1 9.8 21.8 22 21.8 11.9 0 21.7-9.7 21.7-21.6 0-12-9.8-21.6-21.9-21.6zm178.5 28.4l-.1.1c-.8 2.7-2.8 4-5.4 4.5-2.4.5-4.9.4-7.2-.7s-3.6-2.9-3.8-5.4c0-.5.1-.7.6-.6h3c.3 0 .5-.1.6.4.3 2 1.2 2.8 3.2 3.2 1.3.2 2.5.1 3.7-.4.8-.4 1.2-.9 1.2-1.8 0-.8-.4-1.4-1.1-1.8-.9-.6-1.9-.8-2.9-1-1.4-.3-2.7-.7-4-1.2-2.2-.8-3.6-2.2-3.7-4.7-.1-2.4 1-4.1 3.1-5.1 3.1-1.5 6.2-1.4 9.2.2 1.8.9 2.7 2.6 2.8 4.7 0 .4-.1.5-.5.5h-3.2c-.4 0-.6-.1-.6-.5-.1-1.2-.8-1.9-2-2.2-1.2-.3-2.4-.4-3.5.1-.9.4-1.3 1-1.2 1.9 0 .9.5 1.3 1.3 1.6 1.4.6 2.9.9 4.4 1.3.2.1.5.1.7.2 2.5.6 4.5 1.8 5.3 4.5.1.5.1 1.4.1 2.2zm-101.2 4.9c-5.2 0-9.1-3.6-9.6-8.8-.2-1.9 0-3.8.7-5.6 1.6-4.3 5.4-6.4 9.7-6 5.3.5 8.6 4.2 8.8 9.7.1 1.8-.2 3.5-.9 5.2-1.4 3.5-4.6 5.5-8.7 5.5zm-5.3-10.2c0 1.3.2 2.7.9 4 1 1.8 2.5 2.6 4.5 2.6s3.5-.8 4.4-2.6c1.3-2.7 1.2-5.5-.1-8.1-.9-1.7-2.4-2.5-4.3-2.5s-3.4.8-4.3 2.5c-.9 1.2-1.1 2.6-1.1 4.1zm-37.2 3.3h.4c.5 0 1-.1 1.4 0 .5.2.2.8.4 1.3.3.8.8 1.4 1.6 1.7 1.7.8 3.4.8 5 .1.8-.3 1.3-.9 1.4-1.9 0-.9-.5-1.5-1.2-1.9-1.2-.7-2.6-.9-4-1.3-1.2-.3-2.4-.7-3.5-1.2-4.1-1.8-3.7-7-.7-9 2.8-2 7.7-2 10.6-.1 1.5 1 2.3 2.5 2.4 4.3 0 .4-.1.6-.5.6h-3.2c-.3 0-.5-.1-.5-.5-.1-1.3-.9-2-2.2-2.3-1.1-.3-2.2-.3-3.3.1-.8.4-1.3 1-1.3 1.9 0 .9.6 1.3 1.3 1.6 1.6.6 3.3 1 4.9 1.4.9.2 1.8.6 2.7 1 3.6 1.9 3.3 6.5 1.3 8.6-.8.8-1.6 1.4-2.6 1.7-2.7.9-5.5.9-8.2-.1-2.5-1-3.9-2.9-4.2-5.6 0-.5.1-.7.6-.6.4.2.9.2 1.4.2zm124.7-5.9c-.1 1.9.2 4.2-.1 6.4-.4 3.5-2.3 5.5-5.8 6.2-2.2.4-4.3.4-6.4-.4-2.6-1-4-2.9-4.3-5.6-.2-1.2-.1-2.5-.1-3.8V17c0-.5.1-.7.6-.7h3c.5 0 .7.1.7.7v11.1c0 .5 0 1 .1 1.5.3 1.9 1.2 2.9 3.1 3.1.6.1 1.2.1 1.7 0 2.1-.2 3.1-1.4 3.1-3.7V17.7c0-1.4 0-1.4 1.4-1.4h2.3c.5 0 .7.1.6.6.1 2.1.1 4.2.1 6.7zm-71.1-7.2h4.8c.3 0 .4.3.5.5 1 1.7 2.1 3.4 3.1 5 .1.2.3.4.4.7 1.1-1.7 2.2-3.3 3.2-5 .5-1 1.2-1.4 2.3-1.3 1 .1 2.1 0 3.1 0 0 .4-.2.5-.3.7-1.8 2.7-3.6 5.4-5.5 8.1-.3.4-.3.7 0 1.1 2 3 4 6 6 8.9.1.2.3.4.5.8h-4.9c-.4 0-.4-.3-.6-.5-1.2-1.9-2.4-3.7-3.6-5.6-.1-.2-.3-.4-.4-.6-1.4 2.1-2.7 4.1-4 6.2-.3.4-.6.6-1 .6h-4.1c-.1-.3.2-.5.3-.7 2-3 4-6.1 6.1-9.1.3-.4.2-.6 0-1-1.9-2.7-3.7-5.4-5.5-8.1-.1-.2-.2-.4-.4-.7zm19.8 9.8V17c0-.4 0-.6.5-.6 3.1 0 6.1-.1 9.2.1 4.9.2 7.6 5.2 5.1 9.5-1.1 1.9-2.8 2.8-4.9 2.9-1.6.1-3.2.1-4.8.1-.7 0-.9.2-.9.9v5.5c0 .5-.1.7-.6.7h-3.1c-.5 0-.6-.1-.6-.6.2-3.2.1-6.3.1-9.3zm4.4-3.6v2.5c0 .2-.1.5.3.5 1.6-.1 3.3.2 4.9-.2.9-.2 1.5-.7 1.8-1.6.7-2.2-.5-3.9-2.8-4-1.2-.1-2.5 0-3.7 0-.4 0-.5.1-.5.5v2.3zm-54.3-6.2h7.3c.6 0 .8.2.7.8v2.4c0 .4-.1.5-.5.5h-4.7c-.5 0-.7.1-.7.7v14.5c0 .6-.1.8-.8.8-1-.1-1.9-.1-2.9 0-.6 0-.7-.2-.7-.7V21c0-.7-.2-.9-.9-.9-1.4.1-2.9 0-4.3 0-.6 0-.7-.2-.7-.7V17c0-.5.2-.6.6-.6h7.6zm68.2 9.7v-9c0-.6.2-.8.8-.7h2.8c.6 0 .8.1.8.7v14.5c0 .6.2.8.8.8h8.1c.5 0 .7.1.7.7-.1.8 0 1.6 0 2.5 0 .3 0 .5-.5.5h-13c-.6 0-.5-.3-.5-.7v-9.3z"/><path class="st0" d="M48.1 24.7c0 11.1-9 20-20.3 20-11.2 0-20.3-9-20.3-20.1 0-11 9.2-20.1 20.3-20 11.3 0 20.3 9 20.3 20.1zm-24.3 2.1c-.4.7-.8 1.3-1.1 1.9-.2.4-.4.5-.8.4-1.1-.2-2.3-.3-3.5-.1-1.3.1-2.6.5-3.6 1.4-1.7 1.6-1.5 3.7.5 4.9.3.2.7.3 1.1.5 1.1.3 2.2.3 3.4.2 2.2-.3 4.3-1 6.3-1.9.5-.2.9-.2 1.4-.1l3.6 1.2c.4.1.7.2 1 0 2.1-1.1 4.3-2.3 6.1-3.8 1.6-1.3 2.9-2.7 3.6-4.6 1.2-2.9.4-5.6-2.1-7.5-2-1.5-4.3-2-6.7-1.9-.9 0-1.9.1-2.9.2.1-.3.2-.4.3-.6 1.2-2 2.3-3.9 3.5-5.9.1-.2.3-.5.4-.8.1-.3.1-.5-.2-.7-.3-.2-.5 0-.6.2-.2.3-.4.6-.6 1-.2.5-.5.6-1 .4-2.3-.8-4.5-1.5-6.8-2.3-.3-.1-.6-.2-.9 0-1.8 1.5-3.7 3.1-5.1 5-.7 1-1.3 2.1-1.5 3.3-.1.6-.3.8-.8 1-.7.3-1.4.7-1.8 1.4-1.8 2.3-.9 5.3 2 6.4 1.6.6 3.3.9 5.1.7.6.2 1.1.2 1.7.1z"/><path class="st0" d="M31.4 31.8c1.1-.6 2.1-1.1 3.1-1.7.7-.4 1.4-.9 2-1.5 1.6-1.9 1-4.2-1.2-5.2-1-.5-2.1-.5-3.2-.5l-4.5.3c-.2 0-.4.1-.5-.1-.1-.2.1-.3.2-.5.5-1.3 1.4-2 2.9-2 1.7 0 3.5-.2 5.2.2 2.6.7 4.1 2.4 4.3 4.8.1 1.4-.3 2.6-1.1 3.7-.9 1.3-2.1 2.2-3.4 3-.2.1-.3.2-.5.1-1.2-.1-2.2-.3-3.3-.6zM25 18c-.8 0-1.7.1-2.5-.1-1.1-.2-1.9-.8-2.2-1.9-.3-1.2.1-2.1.9-2.9 1-.9 2.1-1 3.4-.9 2.1.2 4 1.2 6 2.1.3.1.3.3.2.6-.5.9-1 1.7-1.5 2.6-.2.3-.5.3-.8.4-1.2-.1-2.4 0-3.5.1z"/><path class="st0" d="M32 26.1c.2 0 .5 0 .8.1 1.1.2 1.6 1.3 1 2.3-.4.7-1 1.1-1.6 1.6-1.4 1-2.7 1.5-4.4.6-1.2-.6-2.5-.9-3.9-1.1-.4-.1-.5-.2-.3-.6v-.1c1.2-2.2 1.2-2.1 3.6-2.3 1.7-.1 3.2-.3 4.8-.5zM27.1 21c-.5.8-.8 1.5-1.2 2.2-.1.1-.2.2-.3.2-2.2.2-4.4.5-6.6-.1-.7-.2-1.3-.4-1.8-1-.8-.9-.7-2.4.3-3.1.2-.1.4-.3.5 0 .9 1.8 2.6 1.9 4.3 2 1.6.2 3.1 0 4.8-.2zm-1.8 12.4c-2.7 1.1-5.2 2.1-8 1.7-.2 0-.5-.1-.7-.2-.6-.2-1.2-.5-1.2-1.3s.6-1.1 1.2-1.4c1-.4 2.1-.3 3.1-.2 1.9.3 3.7.7 5.6 1.4z"/></svg>